<svg width="15" height="15" viewBox="0 0 15 15" fill="none" xmlns="http://www.w3.org/2000/svg">
<g clip-path="url(#clip0_9_90)">
<path d="M0 7.50153C0 7.78704 0.231417 8.01846 0.51693 8.01846H10.3627L8.44219 9.93591C8.24083 10.1373 8.24083 10.4649 8.44219 10.6662C8.54137 10.7654 8.67361 10.8165 8.80585 10.8165C8.93809 10.8165 9.07033 10.7654 9.1695 10.6662L11.9675 7.86818C12.1689 7.66682 12.1689 7.33923 11.9675 7.13787L9.1695 4.33983C8.96814 4.13847 8.64055 4.13847 8.43919 4.33983C8.23783 4.5412 8.23783 4.86879 8.43919 5.07015L10.3566 6.9876H0.51693C0.231417 6.9876 0 7.21601 0 7.50153Z" fill="white"/>
<path d="M11.9134 14.8527C13.6175 14.8527 15 13.4673 15 11.7632V3.23684C15 1.53277 13.6145 0.147278 11.9134 0.147278H3.38709C1.68303 0.147278 0.300537 1.53277 0.300537 3.23684V4.98899C0.300537 5.27451 0.531954 5.50292 0.814462 5.50292C1.09998 5.50292 1.33139 5.2715 1.33139 4.98899V3.23684C1.33139 2.1038 2.25405 1.17813 3.38709 1.17813H11.9134C13.0465 1.17813 13.9691 2.10079 13.9691 3.23684V11.7632C13.9691 12.8962 13.0465 13.8219 11.9134 13.8219H3.38709C2.25405 13.8219 1.33139 12.8992 1.33139 11.7632V10.0321C1.33139 9.74656 1.09998 9.51514 0.814462 9.51514C0.528948 9.51514 0.300537 9.74656 0.300537 10.0321V11.7632C0.300537 13.4673 1.68603 14.8527 3.38709 14.8527H11.9134Z" fill="white"/>
</g>
<defs>
<clipPath id="clip0_9_90">
<rect width="15" height="15" fill="white"/>
</clipPath>
</defs>
</svg>
